<?xml version="1.0" standalone="no"?>
<!DOCTYPE svg PUBLIC "-//W3C//DTD SVG 20010904//EN"
 "http://www.w3.org/TR/2001/REC-SVG-20010904/DTD/svg10.dtd">
<svg version="1.0" xmlns="http://www.w3.org/2000/svg"
 width="800.000000pt" height="800.000000pt" viewBox="0 0 800.000000 800.000000"
 preserveAspectRatio="xMidYMid meet">
<metadata>
Created by potrace 1.11, written by Peter Selinger 2001-2013
</metadata>
<g transform="translate(0.000000,800.000000) scale(0.100000,-0.100000)"
fill="#000000" stroke="none">
<path d="M2170 4081 l0 -1431 100 0 100 0 0 620 0 620 354 0 353 0 358 -605
c197 -333 363 -613 369 -621 9 -12 34 -14 128 -12 l117 3 -375 630 c-207 347
-380 637 -384 646 -7 12 9 22 88 53 272 106 424 273 489 534 22 90 22 309 -1
412 -30 140 -115 281 -223 371 -60 51 -205 121 -303 148 -167 46 -253 53 -722
58 l-448 5 0 -1431z m910 1229 c193 -24 335 -79 430 -167 64 -59 99 -117 132
-223 31 -99 33 -320 4 -415 -64 -211 -206 -340 -451 -407 -74 -20 -108 -22
-452 -26 l-373 -4 0 626 0 626 313 0 c172 0 351 -5 397 -10z"/>
<path d="M4160 5415 l0 -95 463 -2 462 -3 3 -1332 2 -1333 100 0 100 0 0 1335
0 1335 465 0 465 0 0 95 0 95 -1030 0 -1030 0 0 -95z"/>
</g>
</svg>
